PathFileType	4	(X/Y/Z)	c:\Git\powerlifing_model_clean\simulations\HC835B\Session1\HC835B_OGR_0002\marker_experimental.trc
DataRate	CameraRate	NumFrames	NumMarkers	Units	OrigDataRate	OrigDataStartFrame	OrigNumFrames
240.000000	240.000000	4	38	mm	240.000000	27	218
Frame#	Time	RPSI			LPSI			RASI			LASI			RTH1			RTH2			RTH3			RTH4			RSK1			RSK2			RSK3			RSK4			RCAL1			RCAL2			RCAL3			RST			RPT			RTN			RFMB			RSMB			RVMB			RFMH			RSMH			RVMH			RPM			LTH1			LTH2			LTH3			LTH4			LSK1			LSK2			LSK3			LSK4			LCAL1			LCAL2			LCAL3			LFMH			LVMH			
		X1	Y1	Z1	X2	Y2	Z2	X3	Y3	Z3	X4	Y4	Z4	X5	Y5	Z5	X6	Y6	Z6	X7	Y7	Z7	X8	Y8	Z8	X9	Y9	Z9	X10	Y10	Z10	X11	Y11	Z11	X12	Y12	Z12	X13	Y13	Z13	X14	Y14	Z14	X15	Y15	Z15	X16	Y16	Z16	X17	Y17	Z17	X18	Y18	Z18	X19	Y19	Z19	X20	Y20	Z20	X21	Y21	Z21	X22	Y22	Z22	X23	Y23	Z23	X24	Y24	Z24	X25	Y25	Z25	X26	Y26	Z26	X27	Y27	Z27	X28	Y28	Z28	X29	Y29	Z29	X30	Y30	Z30	X31	Y31	Z31	X32	Y32	Z32	X33	Y33	Z33	X34	Y34	Z34	X35	Y35	Z35	X36	Y36	Z36	X37	Y37	Z37	X38	Y38	Z38	

28	0.1125	480.4746704101564	1114.234497070313	-124.5646057128907	371.0358581542969	1113.114379882813	-136.7533264160157	556.1554565429689	1058.667236328125	-324.9146118164063	323.8823242187501	1047.524780273438	-338.7793273925782	619.8444213867189	790.803649902344	-300.6593627929688	616.9812011718751	794.9988403320315	-361.3094177246094	604.7470703125001	719.8574218750001	-343.5274658203126	591.4063720703126	724.0822753906251	-400.4072265625001	512.1282348632814	290.8747558593751	-306.1626281738282	513.2230224609376	270.5907287597657	-364.4979248046876	501.1979980468751	234.0411987304688	-317.1683044433594	489.8535766601564	217.6039123535157	-373.8375854492188	416.9959106445314	95.91707611083986	-248.3328704833985	386.6140441894532	58.62009429931642	-257.6705932617188	449.9743957519532	60.09822845458986	-245.7963409423829	380.8213500976563	71.4614944458008	-328.6760559082032	480.6803588867189	69.65213012695314	-302.8630981445313	403.0397949218751	89.25317382812501	-381.8380126953126	410.1870117187501	73.08779907226564	-413.2410583496095	459.5179748535157	95.81999969482423	-417.3989562988282	496.3126220703126	43.72998428344727	-343.0821838378907	415.3247985839845	46.97753906250001	-468.8826293945314	470.918914794922	59.06663513183595	-475.8904418945314	524.8355712890626	38.2789649963379	-417.6940307617189	468.126434326172	43.04288482666016	-534.6404418945314	238.9212646484376	769.337585449219	-195.7474670410157	243.8703613281251	749.2114257812501	-253.2245788574219	240.8716278076172	683.9660644531251	-205.0293884277344	257.8023681640626	664.5655517578126	-260.1152038574219	291.7981567382813	566.7672119140626	122.6537399291992	277.3039550781251	517.2216796875001	136.677490234375	292.2568359375001	545.6151733398439	174.788818359375	292.7273864746094	491.3900451660157	185.9519348144532	368.3272705078126	583.8635253906251	299.3144531250001	347.6985473632813	594.1199340820314	341.3246459960938	403.4168090820314	578.4053344726564	331.3173522949219	373.9855346679688	360.9153442382813	360.3250122070313	281.3087158203126	422.9209594726564	401.503387451172	
29	0.1166666666666667	479.1718750000001	1112.063110351563	-136.3217468261719	370.5033264160157	1106.921997070313	-147.0503387451172	556.9024658203126	1055.248046875	-337.1582336425782	325.0878601074219	1042.314086914063	-349.7810058593751	619.6059570312501	788.8168945312502	-312.8637695312501	617.3110351562501	793.0140380859377	-373.5198059082032	603.6497192382814	718.1024169921876	-355.9206848144532	590.4031372070314	722.6394042968751	-412.7101135253907	511.1721801757814	291.7101745605469	-311.1976318359376	512.6348876953126	269.7009582519532	-368.9586486816407	500.323211669922	234.4781188964844	-320.7471313476563	489.5349731445314	216.3646240234376	-377.0166015625001	416.942596435547	96.24663543701175	-248.5625152587891	386.565399169922	58.88545989990236	-257.7902832031251	449.9369506835939	60.46822738647462	-245.9148101806641	380.6345520019532	71.46663665771486	-328.7458190917969	480.734588623047	69.97541809082033	-303.0978393554688	402.3274230957032	88.8614959716797	-382.3964843750001	409.9134826660157	72.6829071044922	-413.5037231445314	459.0824584960939	95.45461273193361	-417.688690185547	496.3388977050782	43.92571640014649	-343.1875000000001	415.1919860839845	46.5420036315918	-469.1015930175782	470.7857971191407	58.77701950073244	-476.0973205566407	524.7825317382814	39.52474975585938	-417.7382202148439	468.1037597656251	42.14057159423829	-535.0101318359376	238.8208465576172	765.9635009765626	-211.5724792480469	243.2038726806641	746.7720336914064	-269.3103027343751	240.0337371826172	680.7099609375001	-221.7506561279297	256.7078552246094	662.2688598632814	-277.6434326171876	291.1583862304688	566.3538208007814	101.0917739868164	276.6018676757813	517.3216552734376	116.0597839355469	291.6713867187501	546.2786254882814	153.7529754638672	292.0336608886719	492.1964721679689	165.6987762451172	367.8938903808594	586.0617675781251	278.2159729003907	347.1711120605469	596.7949218750001	320.0099792480469	402.9744567871095	580.9178466796876	310.1946716308594	373.5371398925782	363.8723144531251	340.8133544921876	280.2906188964844	426.0140686035157	381.2734680175782	
30	0.1208333333333333	478.198699951172	1110.798706054688	-148.3953857421875	370.9511108398438	1102.889404296875	-157.6539916992188	558.4239501953126	1052.555541992188	-349.4264831542969	326.3827209472657	1036.979736328125	-360.6719055175782	619.5217895507814	786.7937011718752	-324.8030395507813	617.3807983398439	791.2979736328127	-385.4021301269532	603.0359497070314	716.3247680664064	-368.1183166503907	589.9777221679689	721.2558593750001	-424.8971557617189	510.6348876953126	292.5573730468751	-316.1664733886719	512.0443725585939	269.0233154296876	-373.3323974609376	499.9273681640626	235.0910034179688	-324.1516723632813	489.431610107422	215.3195953369141	-379.9080200195313	417.4197998046876	96.45793914794925	-248.6454772949219	386.8990173339845	59.17760467529298	-257.8532104492188	450.2770996093751	60.57263565063478	-245.9126281738282	381.0140380859376	71.60399627685548	-328.7890014648438	480.8607788085939	69.77207946777345	-303.2046508789063	402.4960021972657	88.45236206054689	-382.5272521972657	410.092254638672	72.39098358154298	-413.6280517578126	459.2615356445314	95.07666015625001	-417.7400512695314	496.7879943847657	43.78368377685548	-343.1329650878907	415.4521789550782	46.29317092895509	-469.1437072753907	471.0522766113282	58.24685668945314	-476.1763610839845	525.4299316406251	39.20214843750001	-417.7555236816407	468.3547973632814	41.31721878051759	-535.2044067382814	238.6107788085938	762.8528442382814	-227.5276947021485	242.7369079589844	744.6633300781251	-285.4522399902344	239.2317657470704	677.9288330078126	-239.0056152343751	255.6645812988282	660.2796020507814	-294.9717102050782	290.5732116699219	565.9947509765626	79.4492645263672	275.8735046386719	517.2905273437501	95.17893218994142	291.1743164062501	546.3652343750001	132.2090759277344	291.4059448242188	492.5809020996095	145.0959625244141	367.3439941406251	587.9076538085939	256.9648742675782	346.3773193359376	598.8953247070314	298.5419311523438	402.556610107422	583.1407470703126	289.0780334472657	372.8052673339844	365.9929809570313	321.1884155273438	279.2883605957032	428.4407348632814	360.7742004394532	
31	0.125	477.7726440429689	1109.98828125	-160.7643432617188	371.7046813964844	1101.188720703125	-169.9846649169922	560.9658813476564	1049.947143554688	-361.7040100097657	327.7445373535157	1031.782836914063	-371.6590270996094	619.4944458007814	784.8142089843752	-336.4069824218751	617.0280761718751	789.4285278320315	-397.023162841797	602.6723632812501	714.5590209960939	-379.9274291992188	589.4965209960939	719.6993408203126	-436.6786193847657	510.4172973632814	293.0123596191407	-320.9929199218751	511.744110107422	268.0347595214844	-377.5598449707032	499.8574829101564	235.3574981689454	-327.5250244140626	489.3855285644532	214.1358642578126	-382.7866516113282	417.5785217285157	96.65854644775393	-248.8290100097657	387.0305786132814	59.37101364135744	-257.9495849609376	450.413787841797	60.72281646728517	-246.0082702636719	381.1804809570313	71.55096435546876	-328.8556518554688	480.8974609375001	69.7024612426758	-303.3542785644532	402.1619262695314	88.31006622314455	-382.9735412597657	410.1043090820314	72.01413726806642	-413.8026428222657	459.2557067871095	94.71249389648439	-417.8729858398439	496.9977111816407	43.6870346069336	-343.1436767578126	415.4685668945314	46.07444000244141	-469.3128356933595	471.0848388671876	57.91633987426759	-476.3433227539064	524.8960571289064	38.0808448791504	-417.9156799316407	468.3721618652345	40.68799209594727	-535.3531494140626	238.2496948242188	759.9615478515626	-243.5605621337891	242.2819519042969	742.7048339843751	-301.7555541992188	238.663803100586	675.3927001953126	-256.2135620117188	254.9358520507813	658.4729614257814	-312.5202636718751	289.8945922851563	565.3676147460939	57.60710906982423	275.1702880859376	516.8013916015626	73.93743896484376	290.6353454589844	546.5960083007814	110.6364822387696	290.8489990234376	492.6802062988282	124.0456466674805	366.6976013183594	589.3542480468751	235.5887451171876	345.3897399902344	600.5520019531251	276.9638977050782	401.6199951171876	584.9426269531251	267.9562072753907	372.3563537597657	367.8255310058594	301.1527099609376	278.3434448242188	430.2724609375001	339.7770690917969	
